<?xml version="1.0" encoding="UTF-8" standalone="no"?>
<svg width="205.317mm" height="142.875mm"
 viewBox="0 0 582 405"
 xmlns="http://www.w3.org/2000/svg" xmlns:xlink="http://www.w3.org/1999/xlink" version="1.1">
<title>Qt SVG Document</title>
<desc>MATLAB, The MathWorks, Inc. Version 26.1.0.3203278 R2026a</desc>
<defs>
</defs>
<g fill="none" stroke="black" stroke-width="1" fill-rule="evenodd" stroke-linecap="square" stroke-linejoin="bevel" >

<g fill="#ffffff" fill-opacity="1" stroke="none" transform="matrix(0.75,0,0,0.75,-37.5,-29.625)"
font-family="Sans Serif" font-size="9" font-weight="400" font-style="normal" 
>
<path vector-effect="none" fill-rule="evenodd" d="M49,38 L825,38 L825,579 L49,579 L49,38"/>
</g>

<g fill="#ffffff" fill-opacity="1" stroke="none" transform="matrix(7.5e-05,0,0,7.5e-05,-37.5,-29.625)"
font-family="Sans Serif" font-size="9" font-weight="400" font-style="normal" 
>
<path vector-effect="none" fill-rule="evenodd" d="M1.17e+06,470000 L1.17e+06,1.74e+06 L8.15e+06,1.74e+06 L8.15e+06,470000 L1.17e+06,470000"/>
</g>

<g fill="#212121" fill-opacity="0.14902" stroke="#212121" stroke-opacity="0.14902" stroke-width="0.666667" stroke-linecap="butt" stroke-linejoin="round" transform="matrix(0.75,0,0,0.75,-37.5,-29.625)"
font-family="Sans Serif" font-size="9" font-weight="400" font-style="normal" 
>
<polyline fill="none" vector-effect="none" points="117,47 117,174 " />
<polyline fill="none" vector-effect="none" points="233.333,47 233.333,174 " />
<polyline fill="none" vector-effect="none" points="349.667,47 349.667,174 " />
<polyline fill="none" vector-effect="none" points="466,47 466,174 " />
<polyline fill="none" vector-effect="none" points="582.333,47 582.333,174 " />
<polyline fill="none" vector-effect="none" points="698.667,47 698.667,174 " />
<polyline fill="none" vector-effect="none" points="815,47 815,174 " />
<polyline fill="none" vector-effect="none" points="117,174 815,174 " />
<polyline fill="none" vector-effect="none" points="117,142.25 815,142.25 " />
<polyline fill="none" vector-effect="none" points="117,110.5 815,110.5 " />
<polyline fill="none" vector-effect="none" points="117,78.75 815,78.75 " />
<polyline fill="none" vector-effect="none" points="117,47 815,47 " />
</g>

<g fill="#212121" fill-opacity="1" stroke="#212121" stroke-opacity="1" stroke-width="0.666667" stroke-linecap="square" stroke-linejoin="round" transform="matrix(0.75,0,0,0.75,-37.5,-29.625)"
font-family="Sans Serif" font-size="9" font-weight="400" font-style="normal" 
>
<polyline fill="none" vector-effect="none" points="117,174 815,174 " />
<polyline fill="none" vector-effect="none" points="117,47 815,47 " />
<polyline fill="none" vector-effect="none" points="117,174 117,167.02 " />
<polyline fill="none" vector-effect="none" points="117,53.98 117,47 " />
<polyline fill="none" vector-effect="none" points="233.333,174 233.333,167.02 " />
<polyline fill="none" vector-effect="none" points="233.333,53.98 233.333,47 " />
<polyline fill="none" vector-effect="none" points="349.667,174 349.667,167.02 " />
<polyline fill="none" vector-effect="none" points="349.667,53.98 349.667,47 " />
<polyline fill="none" vector-effect="none" points="466,174 466,167.02 " />
<polyline fill="none" vector-effect="none" points="466,53.98 466,47 " />
<polyline fill="none" vector-effect="none" points="582.333,174 582.333,167.02 " />
<polyline fill="none" vector-effect="none" points="582.333,53.98 582.333,47 " />
<polyline fill="none" vector-effect="none" points="698.667,174 698.667,167.02 " />
<polyline fill="none" vector-effect="none" points="698.667,53.98 698.667,47 " />
<polyline fill="none" vector-effect="none" points="815,174 815,167.02 " />
<polyline fill="none" vector-effect="none" points="815,53.98 815,47 " />
</g>

<g fill="#212121" fill-opacity="1" stroke="#212121" stroke-opacity="1" stroke-width="1" stroke-linecap="square" stroke-linejoin="bevel" transform="matrix(0.75,0,0,0.75,46.875,115.775)"
font-family="Helvetica" font-size="16" font-weight="400" font-style="normal" 
>
<text fill="#212121" fill-opacity="1" stroke="none" xml:space="preserve" x="0" y="0.484375" font-family="Helvetica" font-size="16" font-weight="400" font-style="normal" 
 >0</text>
</g>

<g fill="#212121" fill-opacity="1" stroke="#212121" stroke-opacity="1" stroke-width="1" stroke-linecap="square" stroke-linejoin="bevel" transform="matrix(0.75,0,0,0.75,134.125,115.775)"
font-family="Helvetica" font-size="16" font-weight="400" font-style="normal" 
>
<text fill="#212121" fill-opacity="1" stroke="none" xml:space="preserve" x="0" y="0.484375" font-family="Helvetica" font-size="16" font-weight="400" font-style="normal" 
 >5</text>
</g>

<g fill="#212121" fill-opacity="1" stroke="#212121" stroke-opacity="1" stroke-width="1" stroke-linecap="square" stroke-linejoin="bevel" transform="matrix(0.75,0,0,0.75,218,115.775)"
font-family="Helvetica" font-size="16" font-weight="400" font-style="normal" 
>
<text fill="#212121" fill-opacity="1" stroke="none" xml:space="preserve" x="0" y="0.484375" font-family="Helvetica" font-size="16" font-weight="400" font-style="normal" 
 >10</text>
</g>

<g fill="#212121" fill-opacity="1" stroke="#212121" stroke-opacity="1" stroke-width="1" stroke-linecap="square" stroke-linejoin="bevel" transform="matrix(0.75,0,0,0.75,305.25,115.775)"
font-family="Helvetica" font-size="16" font-weight="400" font-style="normal" 
>
<text fill="#212121" fill-opacity="1" stroke="none" xml:space="preserve" x="0" y="0.484375" font-family="Helvetica" font-size="16" font-weight="400" font-style="normal" 
 >15</text>
</g>

<g fill="#212121" fill-opacity="1" stroke="#212121" stroke-opacity="1" stroke-width="1" stroke-linecap="square" stroke-linejoin="bevel" transform="matrix(0.75,0,0,0.75,392.5,115.775)"
font-family="Helvetica" font-size="16" font-weight="400" font-style="normal" 
>
<text fill="#212121" fill-opacity="1" stroke="none" xml:space="preserve" x="0" y="0.484375" font-family="Helvetica" font-size="16" font-weight="400" font-style="normal" 
 >20</text>
</g>

<g fill="#212121" fill-opacity="1" stroke="#212121" stroke-opacity="1" stroke-width="1" stroke-linecap="square" stroke-linejoin="bevel" transform="matrix(0.75,0,0,0.75,479.75,115.775)"
font-family="Helvetica" font-size="16" font-weight="400" font-style="normal" 
>
<text fill="#212121" fill-opacity="1" stroke="none" xml:space="preserve" x="0" y="0.484375" font-family="Helvetica" font-size="16" font-weight="400" font-style="normal" 
 >25</text>
</g>

<g fill="#212121" fill-opacity="1" stroke="#212121" stroke-opacity="1" stroke-width="1" stroke-linecap="square" stroke-linejoin="bevel" transform="matrix(0.75,0,0,0.75,567,115.775)"
font-family="Helvetica" font-size="16" font-weight="400" font-style="normal" 
>
<text fill="#212121" fill-opacity="1" stroke="none" xml:space="preserve" x="0" y="0.484375" font-family="Helvetica" font-size="16" font-weight="400" font-style="normal" 
 >30</text>
</g>

<g fill="#212121" fill-opacity="1" stroke="#212121" stroke-opacity="1" stroke-width="1" stroke-linecap="square" stroke-linejoin="bevel" transform="matrix(0,-0.75,0.75,0,10.5,76.875)"
font-family="Helvetica" font-size="16" font-weight="400" font-style="normal" 
>
<text fill="#212121" fill-opacity="1" stroke="none" xml:space="preserve" x="0" y="0.484375" font-family="Helvetica" font-size="16" font-weight="400" font-style="normal" 
 >u</text>
</g>

<g fill="#212121" fill-opacity="1" stroke="#212121" stroke-opacity="1" stroke-width="1" stroke-linecap="square" stroke-linejoin="bevel" transform="matrix(0,-0.75,0.75,0,16.5,70.125)"
font-family="Helvetica" font-size="13" font-weight="400" font-style="normal" 
>
<text fill="#212121" fill-opacity="1" stroke="none" xml:space="preserve" x="0" y="-0.234375" font-family="Helvetica" font-size="13" font-weight="400" font-style="normal" 
 >Glc</text>
</g>

<g fill="#212121" fill-opacity="1" stroke="#212121" stroke-opacity="1" stroke-width="1" stroke-linecap="square" stroke-linejoin="bevel" transform="matrix(0,-0.75,0.75,0,10.5,55.875)"
font-family="Helvetica" font-size="16" font-weight="400" font-style="normal" 
>
<text fill="#212121" fill-opacity="1" stroke="none" xml:space="preserve" x="0" y="0.484375" font-family="Helvetica" font-size="16" font-weight="400" font-style="normal" 
 > [L/h]</text>
</g>

<g fill="#212121" fill-opacity="1" stroke="#212121" stroke-opacity="1" stroke-width="0.666667" stroke-linecap="square" stroke-linejoin="round" transform="matrix(0.75,0,0,0.75,-37.5,-29.625)"
font-family="Helvetica" font-size="16" font-weight="400" font-style="normal" 
>
<polyline fill="none" vector-effect="none" points="117,174 117,47 " />
<polyline fill="none" vector-effect="none" points="815,174 815,47 " />
<polyline fill="none" vector-effect="none" points="117,174 123.98,174 " />
<polyline fill="none" vector-effect="none" points="808.02,174 815,174 " />
<polyline fill="none" vector-effect="none" points="117,142.25 123.98,142.25 " />
<polyline fill="none" vector-effect="none" points="808.02,142.25 815,142.25 " />
<polyline fill="none" vector-effect="none" points="117,110.5 123.98,110.5 " />
<polyline fill="none" vector-effect="none" points="808.02,110.5 815,110.5 " />
<polyline fill="none" vector-effect="none" points="117,78.75 123.98,78.75 " />
<polyline fill="none" vector-effect="none" points="808.02,78.75 815,78.75 " />
<polyline fill="none" vector-effect="none" points="117,47 123.98,47 " />
<polyline fill="none" vector-effect="none" points="808.02,47 815,47 " />
</g>

<g fill="#212121" fill-opacity="1" stroke="#212121" stroke-opacity="1" stroke-width="1" stroke-linecap="square" stroke-linejoin="bevel" transform="matrix(0.75,0,0,0.75,39.1,105)"
font-family="Helvetica" font-size="16" font-weight="400" font-style="normal" 
>
<text fill="#212121" fill-opacity="1" stroke="none" xml:space="preserve" x="0" y="0.484375" font-family="Helvetica" font-size="16" font-weight="400" font-style="normal" 
 >0</text>
</g>

<g fill="#212121" fill-opacity="1" stroke="#212121" stroke-opacity="1" stroke-width="1" stroke-linecap="square" stroke-linejoin="bevel" transform="matrix(0.75,0,0,0.75,22.6,81.1875)"
font-family="Helvetica" font-size="16" font-weight="400" font-style="normal" 
>
<text fill="#212121" fill-opacity="1" stroke="none" xml:space="preserve" x="0" y="0.484375" font-family="Helvetica" font-size="16" font-weight="400" font-style="normal" 
 >0.05</text>
</g>

<g fill="#212121" fill-opacity="1" stroke="#212121" stroke-opacity="1" stroke-width="1" stroke-linecap="square" stroke-linejoin="bevel" transform="matrix(0.75,0,0,0.75,29.35,57.375)"
font-family="Helvetica" font-size="16" font-weight="400" font-style="normal" 
>
<text fill="#212121" fill-opacity="1" stroke="none" xml:space="preserve" x="0" y="0.484375" font-family="Helvetica" font-size="16" font-weight="400" font-style="normal" 
 >0.1</text>
</g>

<g fill="#212121" fill-opacity="1" stroke="#212121" stroke-opacity="1" stroke-width="1" stroke-linecap="square" stroke-linejoin="bevel" transform="matrix(0.75,0,0,0.75,22.6,33.5625)"
font-family="Helvetica" font-size="16" font-weight="400" font-style="normal" 
>
<text fill="#212121" fill-opacity="1" stroke="none" xml:space="preserve" x="0" y="0.484375" font-family="Helvetica" font-size="16" font-weight="400" font-style="normal" 
 >0.15</text>
</g>

<g fill="#212121" fill-opacity="1" stroke="#212121" stroke-opacity="1" stroke-width="1" stroke-linecap="square" stroke-linejoin="bevel" transform="matrix(0.75,0,0,0.75,29.35,9.75)"
font-family="Helvetica" font-size="16" font-weight="400" font-style="normal" 
>
<text fill="#212121" fill-opacity="1" stroke="none" xml:space="preserve" x="0" y="0.484375" font-family="Helvetica" font-size="16" font-weight="400" font-style="normal" 
 >0.2</text>
</g>

<g fill="none" stroke="#1171be" stroke-opacity="1" stroke-width="2.66667" stroke-linecap="butt" stroke-linejoin="miter" stroke-miterlimit="5" transform="matrix(0.75,0,0,0.75,-37.5,-29.625)"
font-family="Helvetica" font-size="16" font-weight="400" font-style="normal" 
>
<polyline fill="none" vector-effect="none" points="117,170.845 186.8,170.845 186.8,161.28 256.6,161.28 256.6,155.343 326.4,155.343 326.4,142.901 396.2,142.901 396.2,124.844 466,124.844 466,84.4042 535.8,84.4042 535.8,47 605.6,47 605.6,47 675.4,47 675.4,47 745.2,47 745.2,92.1457 815,92.1457 815,92.1457 " />
</g>

<g fill="none" stroke="#dd5400" stroke-opacity="1" stroke-width="2.66667" stroke-linecap="butt" stroke-linejoin="miter" stroke-miterlimit="5" transform="matrix(0.75,0,0,0.75,-37.5,-29.625)"
font-family="Helvetica" font-size="16" font-weight="400" font-style="normal" 
>
<polyline fill="none" vector-effect="none" points="117,166.038 186.8,166.038 186.8,158.392 256.6,158.392 256.6,140.799 326.4,140.799 326.4,137.224 396.2,137.224 396.2,97.7472 466,97.7472 466,53.6788 535.8,53.6788 535.8,47 605.6,47 605.6,47 675.4,47 675.4,92.1968 745.2,92.1968 745.2,92.1094 815,92.1094 815,92.1094 " />
</g>

<g fill="#ffffff" fill-opacity="1" stroke="none" transform="matrix(7.5e-05,0,0,7.5e-05,-37.5,-29.625)"
font-family="Helvetica" font-size="16" font-weight="400" font-style="normal" 
>
<path vector-effect="none" fill-rule="evenodd" d="M2.17e+06,500000 L2.17e+06,870000 L2.79e+06,870000 L2.79e+06,500000 L2.17e+06,500000"/>
</g>

<g fill="#1171be" fill-opacity="1" stroke="#1171be" stroke-opacity="1" stroke-width="2.66667" stroke-linecap="butt" stroke-linejoin="round" transform="matrix(0.75,0,0,0.75,-37.5,-29.625)"
font-family="Helvetica" font-size="16" font-weight="400" font-style="normal" 
>
<polyline fill="none" vector-effect="none" points="221,60.137 261,60.137 " />
</g>

<g fill="#dd5400" fill-opacity="1" stroke="#dd5400" stroke-opacity="1" stroke-width="2.66667" stroke-linecap="butt" stroke-linejoin="round" transform="matrix(0.75,0,0,0.75,-37.5,-29.625)"
font-family="Helvetica" font-size="16" font-weight="400" font-style="normal" 
>
<polyline fill="none" vector-effect="none" points="221,76.863 261,76.863 " />
</g>

<g fill="#212121" fill-opacity="1" stroke="#212121" stroke-opacity="1" stroke-width="1" stroke-linecap="square" stroke-linejoin="bevel" transform="matrix(0.75,0,0,0.75,160.5,19.2277)"
font-family="Helvetica" font-size="14" font-weight="400" font-style="normal" 
>
<text fill="#212121" fill-opacity="1" stroke="none" xml:space="preserve" x="0" y="-0.328125" font-family="Helvetica" font-size="14" font-weight="400" font-style="normal" 
 >A</text>
</g>

<g fill="#212121" fill-opacity="1" stroke="#212121" stroke-opacity="1" stroke-width="1" stroke-linecap="square" stroke-linejoin="bevel" transform="matrix(0.75,0,0,0.75,160.5,31.7723)"
font-family="Helvetica" font-size="14" font-weight="400" font-style="normal" 
>
<text fill="#212121" fill-opacity="1" stroke="none" xml:space="preserve" x="0" y="-0.328125" font-family="Helvetica" font-size="14" font-weight="400" font-style="normal" 
 >D</text>
</g>

<g fill="none" stroke="#212121" stroke-opacity="1" stroke-width="0.666667" stroke-linecap="butt" stroke-linejoin="miter" stroke-miterlimit="5" transform="matrix(0.75,0,0,0.75,-37.5,-29.625)"
font-family="Helvetica" font-size="14" font-weight="400" font-style="normal" 
>
<path vector-effect="none" fill-rule="evenodd" d="M217,87 L217,50 L279,50 L279,87 L217,87"/>
</g>

<g fill="#ffffff" fill-opacity="1" stroke="none" transform="matrix(7.5e-05,0,0,7.5e-05,-37.5,-29.625)"
font-family="Helvetica" font-size="14" font-weight="400" font-style="normal" 
>
<path vector-effect="none" fill-rule="evenodd" d="M1.17e+06,2.27e+06 L1.17e+06,3.54e+06 L8.15e+06,3.54e+06 L8.15e+06,2.27e+06 L1.17e+06,2.27e+06"/>
</g>

<g fill="#212121" fill-opacity="0.14902" stroke="#212121" stroke-opacity="0.14902" stroke-width="0.666667" stroke-linecap="butt" stroke-linejoin="round" transform="matrix(0.75,0,0,0.75,-37.5,-29.625)"
font-family="Helvetica" font-size="14" font-weight="400" font-style="normal" 
>
<polyline fill="none" vector-effect="none" points="117,227 117,354 " />
<polyline fill="none" vector-effect="none" points="233.333,227 233.333,354 " />
<polyline fill="none" vector-effect="none" points="349.667,227 349.667,354 " />
<polyline fill="none" vector-effect="none" points="466,227 466,354 " />
<polyline fill="none" vector-effect="none" points="582.333,227 582.333,354 " />
<polyline fill="none" vector-effect="none" points="698.667,227 698.667,354 " />
<polyline fill="none" vector-effect="none" points="815,227 815,354 " />
<polyline fill="none" vector-effect="none" points="117,354 815,354 " />
<polyline fill="none" vector-effect="none" points="117,322.25 815,322.25 " />
<polyline fill="none" vector-effect="none" points="117,290.5 815,290.5 " />
<polyline fill="none" vector-effect="none" points="117,258.75 815,258.75 " />
<polyline fill="none" vector-effect="none" points="117,227 815,227 " />
</g>

<g fill="#212121" fill-opacity="1" stroke="#212121" stroke-opacity="1" stroke-width="0.666667" stroke-linecap="square" stroke-linejoin="round" transform="matrix(0.75,0,0,0.75,-37.5,-29.625)"
font-family="Helvetica" font-size="14" font-weight="400" font-style="normal" 
>
<polyline fill="none" vector-effect="none" points="117,354 815,354 " />
<polyline fill="none" vector-effect="none" points="117,227 815,227 " />
<polyline fill="none" vector-effect="none" points="117,354 117,347.02 " />
<polyline fill="none" vector-effect="none" points="117,233.98 117,227 " />
<polyline fill="none" vector-effect="none" points="233.333,354 233.333,347.02 " />
<polyline fill="none" vector-effect="none" points="233.333,233.98 233.333,227 " />
<polyline fill="none" vector-effect="none" points="349.667,354 349.667,347.02 " />
<polyline fill="none" vector-effect="none" points="349.667,233.98 349.667,227 " />
<polyline fill="none" vector-effect="none" points="466,354 466,347.02 " />
<polyline fill="none" vector-effect="none" points="466,233.98 466,227 " />
<polyline fill="none" vector-effect="none" points="582.333,354 582.333,347.02 " />
<polyline fill="none" vector-effect="none" points="582.333,233.98 582.333,227 " />
<polyline fill="none" vector-effect="none" points="698.667,354 698.667,347.02 " />
<polyline fill="none" vector-effect="none" points="698.667,233.98 698.667,227 " />
<polyline fill="none" vector-effect="none" points="815,354 815,347.02 " />
<polyline fill="none" vector-effect="none" points="815,233.98 815,227 " />
</g>

<g fill="#212121" fill-opacity="1" stroke="#212121" stroke-opacity="1" stroke-width="1" stroke-linecap="square" stroke-linejoin="bevel" transform="matrix(0.75,0,0,0.75,46.875,250.775)"
font-family="Helvetica" font-size="16" font-weight="400" font-style="normal" 
>
<text fill="#212121" fill-opacity="1" stroke="none" xml:space="preserve" x="0" y="0.484375" font-family="Helvetica" font-size="16" font-weight="400" font-style="normal" 
 >0</text>
</g>

<g fill="#212121" fill-opacity="1" stroke="#212121" stroke-opacity="1" stroke-width="1" stroke-linecap="square" stroke-linejoin="bevel" transform="matrix(0.75,0,0,0.75,134.125,250.775)"
font-family="Helvetica" font-size="16" font-weight="400" font-style="normal" 
>
<text fill="#212121" fill-opacity="1" stroke="none" xml:space="preserve" x="0" y="0.484375" font-family="Helvetica" font-size="16" font-weight="400" font-style="normal" 
 >5</text>
</g>

<g fill="#212121" fill-opacity="1" stroke="#212121" stroke-opacity="1" stroke-width="1" stroke-linecap="square" stroke-linejoin="bevel" transform="matrix(0.75,0,0,0.75,218,250.775)"
font-family="Helvetica" font-size="16" font-weight="400" font-style="normal" 
>
<text fill="#212121" fill-opacity="1" stroke="none" xml:space="preserve" x="0" y="0.484375" font-family="Helvetica" font-size="16" font-weight="400" font-style="normal" 
 >10</text>
</g>

<g fill="#212121" fill-opacity="1" stroke="#212121" stroke-opacity="1" stroke-width="1" stroke-linecap="square" stroke-linejoin="bevel" transform="matrix(0.75,0,0,0.75,305.25,250.775)"
font-family="Helvetica" font-size="16" font-weight="400" font-style="normal" 
>
<text fill="#212121" fill-opacity="1" stroke="none" xml:space="preserve" x="0" y="0.484375" font-family="Helvetica" font-size="16" font-weight="400" font-style="normal" 
 >15</text>
</g>

<g fill="#212121" fill-opacity="1" stroke="#212121" stroke-opacity="1" stroke-width="1" stroke-linecap="square" stroke-linejoin="bevel" transform="matrix(0.75,0,0,0.75,392.5,250.775)"
font-family="Helvetica" font-size="16" font-weight="400" font-style="normal" 
>
<text fill="#212121" fill-opacity="1" stroke="none" xml:space="preserve" x="0" y="0.484375" font-family="Helvetica" font-size="16" font-weight="400" font-style="normal" 
 >20</text>
</g>

<g fill="#212121" fill-opacity="1" stroke="#212121" stroke-opacity="1" stroke-width="1" stroke-linecap="square" stroke-linejoin="bevel" transform="matrix(0.75,0,0,0.75,479.75,250.775)"
font-family="Helvetica" font-size="16" font-weight="400" font-style="normal" 
>
<text fill="#212121" fill-opacity="1" stroke="none" xml:space="preserve" x="0" y="0.484375" font-family="Helvetica" font-size="16" font-weight="400" font-style="normal" 
 >25</text>
</g>

<g fill="#212121" fill-opacity="1" stroke="#212121" stroke-opacity="1" stroke-width="1" stroke-linecap="square" stroke-linejoin="bevel" transform="matrix(0.75,0,0,0.75,567,250.775)"
font-family="Helvetica" font-size="16" font-weight="400" font-style="normal" 
>
<text fill="#212121" fill-opacity="1" stroke="none" xml:space="preserve" x="0" y="0.484375" font-family="Helvetica" font-size="16" font-weight="400" font-style="normal" 
 >30</text>
</g>

<g fill="#212121" fill-opacity="1" stroke="#212121" stroke-opacity="1" stroke-width="1" stroke-linecap="square" stroke-linejoin="bevel" transform="matrix(0,-0.75,0.75,0,10.5,211.875)"
font-family="Helvetica" font-size="16" font-weight="400" font-style="normal" 
>
<text fill="#212121" fill-opacity="1" stroke="none" xml:space="preserve" x="0" y="0.484375" font-family="Helvetica" font-size="16" font-weight="400" font-style="normal" 
 >u</text>
</g>

<g fill="#212121" fill-opacity="1" stroke="#212121" stroke-opacity="1" stroke-width="1" stroke-linecap="square" stroke-linejoin="bevel" transform="matrix(0,-0.75,0.75,0,16.5,205.125)"
font-family="Helvetica" font-size="13" font-weight="400" font-style="normal" 
>
<text fill="#212121" fill-opacity="1" stroke="none" xml:space="preserve" x="0" y="-0.234375" font-family="Helvetica" font-size="13" font-weight="400" font-style="normal" 
 >Am</text>
</g>

<g fill="#212121" fill-opacity="1" stroke="#212121" stroke-opacity="1" stroke-width="1" stroke-linecap="square" stroke-linejoin="bevel" transform="matrix(0,-0.75,0.75,0,10.5,190.875)"
font-family="Helvetica" font-size="16" font-weight="400" font-style="normal" 
>
<text fill="#212121" fill-opacity="1" stroke="none" xml:space="preserve" x="0" y="0.484375" font-family="Helvetica" font-size="16" font-weight="400" font-style="normal" 
 > [L/h]</text>
</g>

<g fill="#212121" fill-opacity="1" stroke="#212121" stroke-opacity="1" stroke-width="0.666667" stroke-linecap="square" stroke-linejoin="round" transform="matrix(0.75,0,0,0.75,-37.5,-29.625)"
font-family="Helvetica" font-size="16" font-weight="400" font-style="normal" 
>
<polyline fill="none" vector-effect="none" points="117,354 117,227 " />
<polyline fill="none" vector-effect="none" points="815,354 815,227 " />
<polyline fill="none" vector-effect="none" points="117,354 123.98,354 " />
<polyline fill="none" vector-effect="none" points="808.02,354 815,354 " />
<polyline fill="none" vector-effect="none" points="117,322.25 123.98,322.25 " />
<polyline fill="none" vector-effect="none" points="808.02,322.25 815,322.25 " />
<polyline fill="none" vector-effect="none" points="117,290.5 123.98,290.5 " />
<polyline fill="none" vector-effect="none" points="808.02,290.5 815,290.5 " />
<polyline fill="none" vector-effect="none" points="117,258.75 123.98,258.75 " />
<polyline fill="none" vector-effect="none" points="808.02,258.75 815,258.75 " />
<polyline fill="none" vector-effect="none" points="117,227 123.98,227 " />
<polyline fill="none" vector-effect="none" points="808.02,227 815,227 " />
</g>

<g fill="#212121" fill-opacity="1" stroke="#212121" stroke-opacity="1" stroke-width="1" stroke-linecap="square" stroke-linejoin="bevel" transform="matrix(0.75,0,0,0.75,39.1,240)"
font-family="Helvetica" font-size="16" font-weight="400" font-style="normal" 
>
<text fill="#212121" fill-opacity="1" stroke="none" xml:space="preserve" x="0" y="0.484375" font-family="Helvetica" font-size="16" font-weight="400" font-style="normal" 
 >0</text>
</g>

<g fill="#212121" fill-opacity="1" stroke="#212121" stroke-opacity="1" stroke-width="1" stroke-linecap="square" stroke-linejoin="bevel" transform="matrix(0.75,0,0,0.75,22.6,216.188)"
font-family="Helvetica" font-size="16" font-weight="400" font-style="normal" 
>
<text fill="#212121" fill-opacity="1" stroke="none" xml:space="preserve" x="0" y="0.484375" font-family="Helvetica" font-size="16" font-weight="400" font-style="normal" 
 >0.01</text>
</g>

<g fill="#212121" fill-opacity="1" stroke="#212121" stroke-opacity="1" stroke-width="1" stroke-linecap="square" stroke-linejoin="bevel" transform="matrix(0.75,0,0,0.75,22.6,192.375)"
font-family="Helvetica" font-size="16" font-weight="400" font-style="normal" 
>
<text fill="#212121" fill-opacity="1" stroke="none" xml:space="preserve" x="0" y="0.484375" font-family="Helvetica" font-size="16" font-weight="400" font-style="normal" 
 >0.02</text>
</g>

<g fill="#212121" fill-opacity="1" stroke="#212121" stroke-opacity="1" stroke-width="1" stroke-linecap="square" stroke-linejoin="bevel" transform="matrix(0.75,0,0,0.75,22.6,168.563)"
font-family="Helvetica" font-size="16" font-weight="400" font-style="normal" 
>
<text fill="#212121" fill-opacity="1" stroke="none" xml:space="preserve" x="0" y="0.484375" font-family="Helvetica" font-size="16" font-weight="400" font-style="normal" 
 >0.03</text>
</g>

<g fill="#212121" fill-opacity="1" stroke="#212121" stroke-opacity="1" stroke-width="1" stroke-linecap="square" stroke-linejoin="bevel" transform="matrix(0.75,0,0,0.75,22.6,144.75)"
font-family="Helvetica" font-size="16" font-weight="400" font-style="normal" 
>
<text fill="#212121" fill-opacity="1" stroke="none" xml:space="preserve" x="0" y="0.484375" font-family="Helvetica" font-size="16" font-weight="400" font-style="normal" 
 >0.04</text>
</g>

<g fill="none" stroke="#1171be" stroke-opacity="1" stroke-width="2.66667" stroke-linecap="butt" stroke-linejoin="miter" stroke-miterlimit="5" transform="matrix(0.75,0,0,0.75,-37.5,-29.625)"
font-family="Helvetica" font-size="16" font-weight="400" font-style="normal" 
>
<polyline fill="none" vector-effect="none" points="117,344.324 186.8,344.324 186.8,344.324 256.6,344.324 256.6,344.324 326.4,344.324 326.4,304.459 396.2,304.459 396.2,304.459 466,304.459 466,304.459 535.8,304.459 535.8,230.616 605.6,230.616 605.6,230.616 675.4,230.616 675.4,230.616 745.2,230.616 745.2,230.616 815,230.616 815,230.616 " />
</g>

<g fill="none" stroke="#dd5400" stroke-opacity="1" stroke-width="2.66667" stroke-linecap="butt" stroke-linejoin="miter" stroke-miterlimit="5" transform="matrix(0.75,0,0,0.75,-37.5,-29.625)"
font-family="Helvetica" font-size="16" font-weight="400" font-style="normal" 
>
<polyline fill="none" vector-effect="none" points="117,234.663 186.8,234.663 186.8,234.663 256.6,234.663 256.6,234.663 326.4,234.663 326.4,352.837 396.2,352.837 396.2,352.837 466,352.837 466,352.837 535.8,352.837 535.8,276.247 605.6,276.247 605.6,276.247 675.4,276.247 675.4,276.247 745.2,276.247 745.2,276.247 815,276.247 815,276.247 " />
</g>

<g fill="#ffffff" fill-opacity="1" stroke="none" transform="matrix(7.5e-05,0,0,7.5e-05,-37.5,-29.625)"
font-family="Helvetica" font-size="16" font-weight="400" font-style="normal" 
>
<path vector-effect="none" fill-rule="evenodd" d="M1.17e+06,4.07e+06 L1.17e+06,5.34e+06 L8.15e+06,5.34e+06 L8.15e+06,4.07e+06 L1.17e+06,4.07e+06"/>
</g>

<g fill="#212121" fill-opacity="0.14902" stroke="#212121" stroke-opacity="0.14902" stroke-width="0.666667" stroke-linecap="butt" stroke-linejoin="round" transform="matrix(0.75,0,0,0.75,-37.5,-29.625)"
font-family="Helvetica" font-size="16" font-weight="400" font-style="normal" 
>
<polyline fill="none" vector-effect="none" points="117,407 117,534 " />
<polyline fill="none" vector-effect="none" points="233.333,407 233.333,534 " />
<polyline fill="none" vector-effect="none" points="349.667,407 349.667,534 " />
<polyline fill="none" vector-effect="none" points="466,407 466,534 " />
<polyline fill="none" vector-effect="none" points="582.333,407 582.333,534 " />
<polyline fill="none" vector-effect="none" points="698.667,407 698.667,534 " />
<polyline fill="none" vector-effect="none" points="815,407 815,534 " />
<polyline fill="none" vector-effect="none" points="117,534 815,534 " />
<polyline fill="none" vector-effect="none" points="117,491.667 815,491.667 " />
<polyline fill="none" vector-effect="none" points="117,449.333 815,449.333 " />
<polyline fill="none" vector-effect="none" points="117,407 815,407 " />
</g>

<g fill="#212121" fill-opacity="1" stroke="#212121" stroke-opacity="1" stroke-width="1" stroke-linecap="square" stroke-linejoin="bevel" transform="matrix(0.75,0,0,0.75,292.5,400.275)"
font-family="Helvetica" font-size="17" font-weight="400" font-style="normal" 
>
<text fill="#212121" fill-opacity="1" stroke="none" xml:space="preserve" x="0" y="0.390625" font-family="Helvetica" font-size="17" font-weight="400" font-style="normal" 
 >Zeit [h]</text>
</g>

<g fill="#212121" fill-opacity="1" stroke="#212121" stroke-opacity="1" stroke-width="0.666667" stroke-linecap="square" stroke-linejoin="round" transform="matrix(0.75,0,0,0.75,-37.5,-29.625)"
font-family="Helvetica" font-size="17" font-weight="400" font-style="normal" 
>
<polyline fill="none" vector-effect="none" points="117,534 815,534 " />
<polyline fill="none" vector-effect="none" points="117,407 815,407 " />
<polyline fill="none" vector-effect="none" points="117,534 117,527.02 " />
<polyline fill="none" vector-effect="none" points="117,413.98 117,407 " />
<polyline fill="none" vector-effect="none" points="233.333,534 233.333,527.02 " />
<polyline fill="none" vector-effect="none" points="233.333,413.98 233.333,407 " />
<polyline fill="none" vector-effect="none" points="349.667,534 349.667,527.02 " />
<polyline fill="none" vector-effect="none" points="349.667,413.98 349.667,407 " />
<polyline fill="none" vector-effect="none" points="466,534 466,527.02 " />
<polyline fill="none" vector-effect="none" points="466,413.98 466,407 " />
<polyline fill="none" vector-effect="none" points="582.333,534 582.333,527.02 " />
<polyline fill="none" vector-effect="none" points="582.333,413.98 582.333,407 " />
<polyline fill="none" vector-effect="none" points="698.667,534 698.667,527.02 " />
<polyline fill="none" vector-effect="none" points="698.667,413.98 698.667,407 " />
<polyline fill="none" vector-effect="none" points="815,534 815,527.02 " />
<polyline fill="none" vector-effect="none" points="815,413.98 815,407 " />
</g>

<g fill="#212121" fill-opacity="1" stroke="#212121" stroke-opacity="1" stroke-width="1" stroke-linecap="square" stroke-linejoin="bevel" transform="matrix(0.75,0,0,0.75,46.875,385.775)"
font-family="Helvetica" font-size="16" font-weight="400" font-style="normal" 
>
<text fill="#212121" fill-opacity="1" stroke="none" xml:space="preserve" x="0" y="0.484375" font-family="Helvetica" font-size="16" font-weight="400" font-style="normal" 
 >0</text>
</g>

<g fill="#212121" fill-opacity="1" stroke="#212121" stroke-opacity="1" stroke-width="1" stroke-linecap="square" stroke-linejoin="bevel" transform="matrix(0.75,0,0,0.75,134.125,385.775)"
font-family="Helvetica" font-size="16" font-weight="400" font-style="normal" 
>
<text fill="#212121" fill-opacity="1" stroke="none" xml:space="preserve" x="0" y="0.484375" font-family="Helvetica" font-size="16" font-weight="400" font-style="normal" 
 >5</text>
</g>

<g fill="#212121" fill-opacity="1" stroke="#212121" stroke-opacity="1" stroke-width="1" stroke-linecap="square" stroke-linejoin="bevel" transform="matrix(0.75,0,0,0.75,218,385.775)"
font-family="Helvetica" font-size="16" font-weight="400" font-style="normal" 
>
<text fill="#212121" fill-opacity="1" stroke="none" xml:space="preserve" x="0" y="0.484375" font-family="Helvetica" font-size="16" font-weight="400" font-style="normal" 
 >10</text>
</g>

<g fill="#212121" fill-opacity="1" stroke="#212121" stroke-opacity="1" stroke-width="1" stroke-linecap="square" stroke-linejoin="bevel" transform="matrix(0.75,0,0,0.75,305.25,385.775)"
font-family="Helvetica" font-size="16" font-weight="400" font-style="normal" 
>
<text fill="#212121" fill-opacity="1" stroke="none" xml:space="preserve" x="0" y="0.484375" font-family="Helvetica" font-size="16" font-weight="400" font-style="normal" 
 >15</text>
</g>

<g fill="#212121" fill-opacity="1" stroke="#212121" stroke-opacity="1" stroke-width="1" stroke-linecap="square" stroke-linejoin="bevel" transform="matrix(0.75,0,0,0.75,392.5,385.775)"
font-family="Helvetica" font-size="16" font-weight="400" font-style="normal" 
>
<text fill="#212121" fill-opacity="1" stroke="none" xml:space="preserve" x="0" y="0.484375" font-family="Helvetica" font-size="16" font-weight="400" font-style="normal" 
 >20</text>
</g>

<g fill="#212121" fill-opacity="1" stroke="#212121" stroke-opacity="1" stroke-width="1" stroke-linecap="square" stroke-linejoin="bevel" transform="matrix(0.75,0,0,0.75,479.75,385.775)"
font-family="Helvetica" font-size="16" font-weight="400" font-style="normal" 
>
<text fill="#212121" fill-opacity="1" stroke="none" xml:space="preserve" x="0" y="0.484375" font-family="Helvetica" font-size="16" font-weight="400" font-style="normal" 
 >25</text>
</g>

<g fill="#212121" fill-opacity="1" stroke="#212121" stroke-opacity="1" stroke-width="1" stroke-linecap="square" stroke-linejoin="bevel" transform="matrix(0.75,0,0,0.75,567,385.775)"
font-family="Helvetica" font-size="16" font-weight="400" font-style="normal" 
>
<text fill="#212121" fill-opacity="1" stroke="none" xml:space="preserve" x="0" y="0.484375" font-family="Helvetica" font-size="16" font-weight="400" font-style="normal" 
 >30</text>
</g>

<g fill="#212121" fill-opacity="1" stroke="#212121" stroke-opacity="1" stroke-width="1" stroke-linecap="square" stroke-linejoin="bevel" transform="matrix(0,-0.75,0.75,0,10.5,346.125)"
font-family="Helvetica" font-size="16" font-weight="400" font-style="normal" 
>
<text fill="#212121" fill-opacity="1" stroke="none" xml:space="preserve" x="0" y="0.484375" font-family="Helvetica" font-size="16" font-weight="400" font-style="normal" 
 >u</text>
</g>

<g fill="#212121" fill-opacity="1" stroke="#212121" stroke-opacity="1" stroke-width="1" stroke-linecap="square" stroke-linejoin="bevel" transform="matrix(0,-0.75,0.75,0,16.5,339.375)"
font-family="Helvetica" font-size="13" font-weight="400" font-style="normal" 
>
<text fill="#212121" fill-opacity="1" stroke="none" xml:space="preserve" x="0" y="-0.234375" font-family="Helvetica" font-size="13" font-weight="400" font-style="normal" 
 >Ph</text>
</g>

<g fill="#212121" fill-opacity="1" stroke="#212121" stroke-opacity="1" stroke-width="1" stroke-linecap="square" stroke-linejoin="bevel" transform="matrix(0,-0.75,0.75,0,10.5,327.375)"
font-family="Helvetica" font-size="16" font-weight="400" font-style="normal" 
>
<text fill="#212121" fill-opacity="1" stroke="none" xml:space="preserve" x="0" y="0.484375" font-family="Helvetica" font-size="16" font-weight="400" font-style="normal" 
 > [L/h]</text>
</g>

<g fill="#212121" fill-opacity="1" stroke="#212121" stroke-opacity="1" stroke-width="0.666667" stroke-linecap="square" stroke-linejoin="round" transform="matrix(0.75,0,0,0.75,-37.5,-29.625)"
font-family="Helvetica" font-size="16" font-weight="400" font-style="normal" 
>
<polyline fill="none" vector-effect="none" points="117,534 117,407 " />
<polyline fill="none" vector-effect="none" points="815,534 815,407 " />
<polyline fill="none" vector-effect="none" points="117,534 123.98,534 " />
<polyline fill="none" vector-effect="none" points="808.02,534 815,534 " />
<polyline fill="none" vector-effect="none" points="117,491.667 123.98,491.667 " />
<polyline fill="none" vector-effect="none" points="808.02,491.667 815,491.667 " />
<polyline fill="none" vector-effect="none" points="117,449.333 123.98,449.333 " />
<polyline fill="none" vector-effect="none" points="808.02,449.333 815,449.333 " />
<polyline fill="none" vector-effect="none" points="117,407 123.98,407 " />
<polyline fill="none" vector-effect="none" points="808.02,407 815,407 " />
</g>

<g fill="#212121" fill-opacity="1" stroke="#212121" stroke-opacity="1" stroke-width="1" stroke-linecap="square" stroke-linejoin="bevel" transform="matrix(0.75,0,0,0.75,39.1,375)"
font-family="Helvetica" font-size="16" font-weight="400" font-style="normal" 
>
<text fill="#212121" fill-opacity="1" stroke="none" xml:space="preserve" x="0" y="0.484375" font-family="Helvetica" font-size="16" font-weight="400" font-style="normal" 
 >0</text>
</g>

<g fill="#212121" fill-opacity="1" stroke="#212121" stroke-opacity="1" stroke-width="1" stroke-linecap="square" stroke-linejoin="bevel" transform="matrix(0.75,0,0,0.75,22.6,343.25)"
font-family="Helvetica" font-size="16" font-weight="400" font-style="normal" 
>
<text fill="#212121" fill-opacity="1" stroke="none" xml:space="preserve" x="0" y="0.484375" font-family="Helvetica" font-size="16" font-weight="400" font-style="normal" 
 >0.01</text>
</g>

<g fill="#212121" fill-opacity="1" stroke="#212121" stroke-opacity="1" stroke-width="1" stroke-linecap="square" stroke-linejoin="bevel" transform="matrix(0.75,0,0,0.75,22.6,311.5)"
font-family="Helvetica" font-size="16" font-weight="400" font-style="normal" 
>
<text fill="#212121" fill-opacity="1" stroke="none" xml:space="preserve" x="0" y="0.484375" font-family="Helvetica" font-size="16" font-weight="400" font-style="normal" 
 >0.02</text>
</g>

<g fill="#212121" fill-opacity="1" stroke="#212121" stroke-opacity="1" stroke-width="1" stroke-linecap="square" stroke-linejoin="bevel" transform="matrix(0.75,0,0,0.75,22.6,279.75)"
font-family="Helvetica" font-size="16" font-weight="400" font-style="normal" 
>
<text fill="#212121" fill-opacity="1" stroke="none" xml:space="preserve" x="0" y="0.484375" font-family="Helvetica" font-size="16" font-weight="400" font-style="normal" 
 >0.03</text>
</g>

<g fill="none" stroke="#1171be" stroke-opacity="1" stroke-width="2.66667" stroke-linecap="butt" stroke-linejoin="miter" stroke-miterlimit="5" transform="matrix(0.75,0,0,0.75,-37.5,-29.625)"
font-family="Helvetica" font-size="16" font-weight="400" font-style="normal" 
>
<polyline fill="none" vector-effect="none" points="117,444.308 186.8,444.308 186.8,444.308 256.6,444.308 256.6,444.308 326.4,444.308 326.4,534 396.2,534 396.2,534 466,534 466,534 535.8,534 535.8,407 605.6,407 605.6,407 675.4,407 675.4,407 745.2,407 745.2,407 815,407 815,407 " />
</g>

<g fill="none" stroke="#dd5400" stroke-opacity="1" stroke-width="2.66667" stroke-linecap="butt" stroke-linejoin="miter" stroke-miterlimit="5" transform="matrix(0.75,0,0,0.75,-37.5,-29.625)"
font-family="Helvetica" font-size="16" font-weight="400" font-style="normal" 
>
<polyline fill="none" vector-effect="none" points="117,534 186.8,534 186.8,534 256.6,534 256.6,534 326.4,534 326.4,425.555 396.2,425.555 396.2,425.555 466,425.555 466,425.555 535.8,425.555 535.8,407 605.6,407 605.6,407 675.4,407 675.4,407 745.2,407 745.2,407 815,407 815,407 " />
</g>
</g>
</svg>
